<svg xmlns="http://www.w3.org/2000/svg" height="1200" width="1600" version="1.1" xmlns:xlink="http://www.w3.org/1999/xlink" xmlns:svgjs="http://svgjs.com/svgjs"><rect fill="#ffffff" width="1600" height="1200"></rect><g><path d="M1039.32 691.31C1080.57 654.96 1157.02 605.88 1221.03 647.55 1221.03 647.55 1158.06 565.26 1190.12 526.83 1232 476.49 1355.23 613.29 1336.74 636.79 1317.74 660.81 1275.23 553.35 1297.48 493.62 1315.02 446.62 1398.78 517.11 1412.25 558.78" stroke="#231f20" stroke-width="4" stroke-linecap="round" stroke-linejoin="round" opacity="1" fill="none"></path></g><g><path d="M747.06 729.55H633.98C610.83 729.55 592.1 748.37 592.1 771.66V899.97C592.1 923.26 610.83 942.09 633.98 942.09H847.32C855.45 942.09 861.86 935.4 861.86 927.47 861.86 919.3 855.45 912.61 847.32 912.61 847.32 912.61 847.32 912.61 847.08 912.61H788.45V771.66C788.69 748.37 769.97 729.55 747.06 729.55Z" fill="#6d63ff" opacity="1" stroke-width="4" stroke="none"></path><path d="M747.06 727.32H633.98C610.83 727.32 592.1 746.14 592.1 769.43V879.91L788.45 831.85V769.43C788.69 746.14 769.97 727.32 747.06 727.32Z" fill="#101016" opacity="0.2" stroke-width="4" stroke="none"></path><path d="M346 304.47L895.36 304.47C931.33 304.47 965.82 333.7 971.98 370.11L1039.48 754.56C1045.89 790.73 1021.74 820.21 985.78 820.21H436.41C400.44 820.21 365.95 790.98 359.79 754.56L292.29 370.11C285.89 333.7 310.03 304.47 346 304.47Z" fill="#6d63ff" opacity="1" stroke-width="4" stroke="none"></path><path d="M383.93 362.93L877.87 362.93C897.09 362.93 915.07 378.53 918.52 397.61L971.98 702.54 408.82 702.54 355.36 397.61C352.15 378.53 364.72 362.93 383.93 362.93Z" fill="#ffffff" opacity="1" stroke-width="4" stroke="none"></path><path d="M590.33 820.38H790.2" stroke="#101016" stroke-width="4" stroke-linecap="round" stroke-linejoin="round" opacity="1" fill="none"></path><path d="M622.4 340.53C618.98 337.39 618.39 332.48 621.05 329.56 623.71 326.64 628.64 326.81 632.06 329.96 635.46 333.08 636.08 338.01 633.42 340.93 630.73 343.85 625.8 343.68 622.4 340.53Z" fill="#101016" opacity="1" stroke-width="4" stroke="none"></path></g><g><path d="M712.21 472.68C705.97 440.23 674.64 413.95 642.19 413.95 609.73 413.95 588.51 440.23 594.75 472.68 599.18 495.69 616.58 516.56 639.28 526.09L660.12 634.45 688.36 658.49 709.06 634.45 705.66 616.76 686.99 600.96 699.75 586.02 697.98 576.83 679.32 561.03 692.07 546.09 688.22 526.09C707.25 516.56 716.64 495.69 712.21 472.68ZM647.36 439.54C657.32 439.54 667.03 447.61 668.96 457.66 670.9 467.7 664.38 475.77 654.33 475.77 644.29 475.77 634.66 467.7 632.73 457.66 630.8 447.61 637.4 439.54 647.36 439.54Z" fill="#824da3" opacity="1" stroke-width="4" stroke="none"></path></g><g><path d="M1167.74 858.75C1159.6 836.77 1139.6 808.9 1121.87 784.11 1119.06 780.13 1116.17 776.24 1113.45 772.34L1113.27 772.16 1195.33 752.35 1199.04 754.16C1202.66 759.23 1205.47 763.57 1208.36 768.18 1216.24 780.85 1223.29 793.97 1229.35 807.63 1232.34 814.42 1235.15 821.11 1237.86 828.26L1231.44 878.39 1167.74 858.75Z" fill="#ac704e" opacity="1" stroke-width="4" stroke="none"></path><path d="M1133.18 799.94C1129.38 794.6 1125.58 789.26 1121.87 784.02 1119.06 780.04 1117.79 778.32 1114.99 774.43L1113.36 772.07 1186.74 750.72 1186.92 751.08C1171.54 759.41 1157.7 770.35 1146.02 783.29 1137.52 792.79 1133.63 799.85 1133.54 799.94L1133.36 800.21 1133.18 799.94Z" fill="#1a1a1a" opacity="0.3" stroke-width="4" stroke="none"></path><path d="M1008.5 381.75C1005.69 382.65 1002.71 383.11 999.72 383.02 991.58 383.02 984.7 380.21 981.35 375.51 975.83 368 975.74 359.22 980.81 343.3 980.27 342.57 976.38 337.6 977.1 334.43 977.55 332.62 980.27 331.26 985.06 330.63L985.52 329.09C988.05 321.49 990.4 314.8 993.21 309.28 997.19 301.49 1008.77 303.49 1017.82 300.05 1023.79 297.69 1023.43 297.42 1029.76 297.51 1041.97 297.51 1046.77 295.25 1054.82 302.49 1067.67 314.07 1065.86 333.43 1063.6 345.29L1061.52 346.82C1060.43 353.79 1062.51 376.41 1059.71 390.34V390.53L1009.31 393.33 1007.5 387.9 1008.5 381.75Z" fill="#ac704e" opacity="1" stroke-width="4" stroke="none"></path><path d="M1008.5 381.75L1015.46 378.94C1015.74 378.85 1015.92 378.76 1016.19 378.76 1016.73 378.76 1017.27 379.03 1017.54 379.49 1017.82 379.94 1017.91 380.48 1017.64 381.03L1013.02 391.52 1007.5 387.9 1008.5 381.75Z" fill="#1a1a1a" opacity="0.3" stroke-width="4" stroke="none"></path><path d="M1002.71 863.73C1002.44 856.76 1001.62 850.97 1001.26 848.44 999.54 836.31 997.46 821.47 994.74 803.29L1012.12 654.9 1072.1 778.5C1073.64 785.37 1075.99 797.32 1076.9 803.56 1079.16 818.31 1080.34 833.15 1080.52 848.07 1080.52 853.14 1080.61 858.3 1080.43 863.55L1051.11 915.48 1002.71 863.73Z" fill="#ac704e" opacity="1" stroke-width="4" stroke="none"></path><path d="M1005.78 754.7L1011.66 663.68C1011.84 661.33 1015.01 660.69 1016.01 662.78L1072.01 778.32C1072.1 778.5 1072.19 778.68 1072.19 778.86 1072.56 780.49 1072.92 782.39 1073.28 784.47 1074 787.91 1074.73 791.8 1075.36 795.24 1075.54 796.05 1075.18 796.86 1074.55 797.41L1056.36 812.34C1055.36 813.15 1053.92 812.97 1053.1 812.06L1006.14 756.42C1005.87 755.88 1005.69 755.24 1005.78 754.7Z" fill="#1a1a1a" opacity="0.3" stroke-width="4" stroke="none"></path><path d="M963.62 929.51L963.17 928.6C964.89 926.16 966.79 924.08 969.05 922.27 970.22 921.36 971.58 920.19 973.21 918.92 979.36 914.03 987.78 907.34 993.48 901.37 1000.26 894.13 1003.43 881.09 1002.71 863.72V863.54H1019.54C1026.32 863.54 1032.56 867.25 1035.82 873.13L1050.03 899.1C1050.12 899.2 1050.21 899.2 1050.21 899.1L1053.92 878.83C1055.55 870.05 1063.24 863.63 1072.19 863.63H1080.34V863.81C1079.7 885.7 1077.44 907.25 1073.28 928.69 1073.28 928.69 1073.28 928.69 1073.28 928.78L1072.65 929.51H1072.56 963.62Z" fill="#311125" opacity="1" stroke-width="4" stroke="none"></path><path d="M862.56 451.42C858.66 443.64 856.67 438.21 856.31 437.39 855.23 437.12 845.73 434.77 837.49 422.74 837.04 423.64 835.32 426.36 832.25 426.36 830.07 426.36 827.72 425.09 825.1 422.46 818.85 416.22 818.04 411.79 818.49 409.16 818.76 407.26 819.85 405.73 821.48 404.82 820.3 401.93 820.21 399.39 821.21 397.22 821.93 395.59 823.29 394.24 825.01 393.42 822.02 387.27 826.45 383.11 827.54 382.2 825.91 381.39 824.46 380.57 823.02 379.76 814.24 375.14 808.54 372.16 808.54 368.18 808.54 366.37 809.72 364.2 815.33 364.2 821.39 364.2 831.16 366.91 841.47 371.43 852.33 376.14 862.56 382.38 871.69 389.89 879.75 396.77 889.61 406.36 901.55 418.85L901.46 420.66 864.55 452.05 862.56 451.42Z" fill="#ac704e" opacity="1" stroke-width="4" stroke="none"></path><path d="M1095.54 564.61C1085.49 549.59 1074.64 541.81 1073.82 541.17L989.23 540.54 988.95 539.82 978.82 492.4C976.11 494.49 950.68 514.12 930.14 514.12 929.51 514.12 928.88 514.12 928.24 514.03 914.85 513.21 888.52 504.08 862.65 451.51L862.56 451.42 901.55 418.85 901.64 418.94C915.67 433.68 927.61 447.35 929.06 448.97 962.72 404.82 990.22 398.22 1003.61 398.22 1003.97 398.22 1004.34 398.22 1004.61 398.22H1005.15C1005.24 398.22 1005.33 398.22 1005.42 398.22L1007.5 387.9H1061.16C1061.16 387.9 1059.98 393.78 1059.71 395.05 1061.7 395.32 1078.35 398.22 1089.84 410.88 1094.9 416.31 1112.55 423.46 1119.51 441.37 1123.77 452.05 1117.34 470.24 1120.15 480.19 1122.41 488.24 1124.13 495.84 1125.12 502.45 1129.56 530.68 1113.63 555.02 1095.72 564.52L1095.54 564.61Z" fill="#824da3" opacity="1" stroke-width="4" stroke="none"></path><path d="M1073.82 541.17L1073.91 539.82 1082.87 488.42C1090.2 491.05 1091.56 500.28 1093 510.14 1094.18 517.83 1095.36 525.7 1099.25 531.94 1106.39 543.43 1114.81 547.05 1114.81 547.05 1109.56 554.56 1102.87 560.72 1095.81 564.43 1095.81 564.43 1074 541.26 1073.82 541.17Z" fill="#000000" opacity="0.3" stroke-width="4" stroke="none"></path><path d="M1122.68 480.37C1121.32 480.37 1120.24 480.19 1120.24 480.19 1120.24 480.19 1118.25 473.77 1117.7 472.23 1112.28 457.39 1110.56 451.33 1101.06 430.52 1094 433.96 1083.59 435.58 1075.72 435.49 1065.14 435.4 1054.64 433.41 1045.77 427.71 1038.26 423.01 1028.76 413.33 1026.32 393.42 1025.42 386.09 1025.6 378.67 1026.68 371.43L1026.77 371.34C1026.77 371.34 1051.02 360.4 1045.68 344.38 1044.33 340.22 1040.71 338.05 1035.1 338.05 1026.86 338.05 1016.82 342.66 1016.82 342.66 1016.73 342.57 1006.69 330.54 1014.2 318.32 1014.38 318.05 1014.11 317.69 1013.84 317.78 1011.48 318.32 1009.22 318.69 1006.78 318.69 995.29 318.69 993.21 309.37 993.21 309.37V309.28C997.55 300.77 1002.98 295.7 1011.21 292.63 1017.18 290.28 1023.52 289.1 1029.85 289.19 1042.06 289.19 1053.74 293.26 1061.88 300.5 1074.09 311.54 1071.74 331.99 1069.03 346.19L1068.94 346.46C1073.46 345.83 1077.98 345.47 1082.51 345.47 1098.25 345.47 1126.3 349.45 1137.43 375.96 1143.13 389.71 1144.76 410.16 1132.09 426.63 1134.26 427.35 1150.28 433.14 1152.81 445.72 1154.62 453.77 1152.54 462.18 1147.29 468.52 1141.32 475.58 1131.46 480.37 1122.68 480.37Z" fill="#231f20" opacity="1" stroke-width="4" stroke="none"></path><path d="M994.74 803.29C993.57 795.33 992.39 787.45 991.22 779.85 988.68 762.66 986.33 746.74 985.15 738.23 972.85 648.93 983.71 560.44 988.95 540V539.82H1073.91 1074C1105.49 566.6 1116.53 599.08 1132.63 644.68 1140.6 667.12 1147.92 681.14 1161.41 704.03 1167.29 713.99 1174.16 722.31 1180.86 730.36 1184.48 734.71 1187.83 738.78 1190.9 742.94 1193.98 747.01 1196.69 750.63 1199.14 754.16L1053.83 789.17C1053.74 789.17 1053.74 789.17 1053.74 789.08L1017.36 684.31C1017.36 684.22 1017.18 684.22 1017.18 684.31L1017.64 797.77C1017.64 797.86 1017.64 797.86 1017.54 797.86L994.74 803.29Z" fill="#7b6324" opacity="1" stroke-width="4" stroke="none"></path><path d="M1017 684.31L1005.87 539.82" stroke="#000000" stroke-width="4" stroke-linecap="round" stroke-linejoin="round" opacity="1" fill="none"></path><path d="M958.46 943.71V943.53C958.37 938.19 960 933.03 963.08 928.69L963.17 928.6H1073.37V928.78C1072.47 933.76 1071.2 938.73 1069.75 943.53L958.46 943.71Z" fill="#000000" opacity="1" stroke-width="4" stroke="none"></path><path d="M1154.98 943.62C1152.81 938.73 1152.18 933.22 1153.35 927.88L1153.9 927.33 1253.78 883.9 1254.51 884.26C1255.59 889.23 1256.5 894.4 1257.13 899.56V899.65L1154.98 943.62Z" fill="#000000" opacity="1" stroke-width="4" stroke="none"></path><path d="M1153.71 927.7C1153.53 927.79 1153.35 927.61 1153.44 927.42 1154.08 924.8 1154.98 922.18 1156.25 919.73 1156.79 918.65 1157.51 917.29 1158.24 915.84 1161.77 909.06 1167.2 898.83 1170.36 890.78 1173.53 882.55 1172.72 872.14 1167.83 858.84 1167.83 858.75 1167.83 858.66 1167.92 858.57L1184.03 851.42C1190 848.8 1196.96 849.61 1202.3 853.41L1224.29 869.16C1224.47 869.25 1224.65 869.16 1224.65 868.98L1221.57 850.88C1220.13 842.37 1224.65 833.96 1232.61 830.52L1237.95 828.17 1238.04 828.35C1244.92 846.45 1250.44 865.08 1254.6 883.99 1254.6 884.09 1254.6 884.18 1254.51 884.27L1153.71 927.7Z" fill="#311125" opacity="1" stroke-width="4" stroke="none"></path><path d="M1000.9 886.35L1017.73 889.88" stroke="#000000" stroke-width="4" stroke-linecap="round" stroke-linejoin="round" opacity="1" fill="none"></path><path d="M996.1 898.02L1010.49 908.42" stroke="#000000" stroke-width="4" stroke-linecap="round" stroke-linejoin="round" opacity="1" fill="none"></path><path d="M1050.3 899.01L1045.96 928.6" stroke="#000000" stroke-width="4" stroke-linecap="round" stroke-linejoin="round" opacity="1" fill="none"></path><path d="M1224.56 868.88L1230.8 894.67" stroke="#000000" stroke-width="4" stroke-linecap="round" stroke-linejoin="round" opacity="1" fill="none"></path><path d="M1172.26 879.56L1186.02 880.83" stroke="#000000" stroke-width="4" stroke-linecap="round" stroke-linejoin="round" opacity="1" fill="none"></path><path d="M1170.36 890.87L1184.39 896.21" stroke="#000000" stroke-width="4" stroke-linecap="round" stroke-linejoin="round" opacity="1" fill="none"></path><path d="M1082.87 488.42L1073.91 539.82H988.95" stroke="#000000" stroke-width="4" stroke-linecap="round" stroke-linejoin="round" opacity="1" fill="none"></path><path d="M1094.63 517.1L1078.26 514.21" stroke="#000000" stroke-width="4" stroke-linecap="round" stroke-linejoin="round" opacity="1" fill="none"></path><path d="M929.06 448.97L920.01 461.01" stroke="#000000" stroke-width="4" stroke-linecap="round" stroke-linejoin="round" opacity="1" fill="none"></path><path d="M978.82 492.4L997.82 474.58" stroke="#000000" stroke-width="4" stroke-linecap="round" stroke-linejoin="round" opacity="1" fill="none"></path><path d="M827.54 382.19C834.96 382.74 842.65 384.64 849.44 387.71" stroke="#1a1a1a" stroke-width="4" stroke-linecap="round" stroke-linejoin="round" opacity="1" fill="none"></path><path d="M825.01 393.42C833.78 393.96 844.91 397.67 844.91 397.67" stroke="#1a1a1a" stroke-width="4" stroke-linecap="round" stroke-linejoin="round" opacity="1" fill="none"></path><path d="M821.48 404.82C826.45 403.92 837.76 406.99 839.48 408.53" stroke="#1a1a1a" stroke-width="4" stroke-linecap="round" stroke-linejoin="round" opacity="1" fill="none"></path><path d="M1008.5 381.75C1013.02 379.85 1015.46 378.94 1015.46 378.94" stroke="#1a1a1a" stroke-width="4" stroke-linecap="round" stroke-linejoin="round" opacity="1" fill="none"></path><path d="M1028.58 352.43L1022.25 356.05" stroke="#1a1a1a" stroke-width="4" stroke-linecap="round" stroke-linejoin="round" opacity="1" fill="none"></path><path d="M1101.06 430.52C1110.1 426.9 1110.92 423.01 1110.92 423.01" stroke="#181818" stroke-width="4" stroke-linecap="round" stroke-linejoin="round" opacity="1" fill="none"></path><path d="M1132.09 426.63C1129.92 429.25 1127.11 431.69 1124.49 433.86" stroke="#181818" stroke-width="4" stroke-linecap="round" stroke-linejoin="round" opacity="1" fill="none"></path><path d="M1068.94 346.45L1065.68 360.57" stroke="#181818" stroke-width="4" stroke-linecap="round" stroke-linejoin="round" opacity="1" fill="none"></path><path d="M994.2 347.91C991.49 351.53 986.06 351.53 986.06 351.53" stroke="#1a1a1a" stroke-width="4" stroke-linecap="round" stroke-linejoin="round" opacity="1" fill="none"></path><path d="M994.65 336.15C995.9 336.15 996.92 335.13 996.92 333.89 996.92 332.64 995.9 331.62 994.65 331.62 993.41 331.62 992.39 332.64 992.39 333.89 992.39 335.13 993.41 336.15 994.65 336.15Z" fill="#231f20" opacity="1" stroke-width="4" stroke="none"></path><path d="M978.82 492.4L990.49 481.46C991.22 480.91 993.66 480.64 994.56 480.64 995.83 480.64 996.92 482 997.73 482.99 998.54 483.9 998.82 485.17 998.54 486.43 995.74 500.37 985.43 520.45 985.33 520.72L984.97 521.45 978.82 492.4Z" fill="#000000" opacity="0.3" stroke-width="4" stroke="none"></path></g><g><path d="M238.37 920.74L293.39 1024.82C294.26 1025.49 296.38 1025.49 296.86 1024.72L409.52 854.34C409.81 853.86 409.32 853.28 408.84 853.48L239.72 917.08C238.95 917.27 237.31 919.01 238.37 920.74Z" fill="#824da3" opacity="1" stroke-width="4" stroke="none"></path><path d="M239.14 919.2L294.45 1023.85C294.84 1024.53 294.07 1025.3 293.39 1024.82L227.38 982.7 237.98 919.39C238.08 918.81 238.85 918.62 239.14 919.2Z" fill="#231f20" opacity="1" stroke-width="4" stroke="none"></path></g><g><path d="M271.06 213.58L252.25 184.86 281.44 200.26 291.48 148.63 302.27 203.72 348.47 181.11 314.79 220.74 356.78 261.81 305.38 243.12 301.46 300.52 283.46 248.43 238.01 274.73 269.79 231.06 223.81 216.41 271.06 213.58Z" fill="#311125" opacity="1" stroke-width="4" stroke="none"></path></g><g><path d="M1226.73 320.44C1232.47 323.71 1236.21 329.56 1237.03 336.12 1237.5 340.91 1241.24 344.77 1245.92 345.48L1246.27 345.59C1250.95 346.18 1255.52 343.49 1257.15 338.92 1258.21 336.35 1259.61 333.89 1261.6 331.79 1266.87 326.29 1274.7 324.06 1282.08 326.17 1284.77 326.99 1287.34 328.28 1289.56 330.03 1293.43 333.07 1298.57 333.07 1302.43 330.03L1302.67 329.91C1306.53 326.87 1307.82 321.72 1305.83 317.28 1301.26 306.86 1305.95 294.46 1316.36 289.9 1318.23 289.08 1320.22 288.49 1322.33 288.26 1327.12 287.79 1330.98 284.05 1331.69 279.37L1331.8 279.02C1332.39 274.34 1329.7 269.77 1325.13 268.14 1322.56 267.08 1320.1 265.68 1318 263.69 1312.5 258.42 1310.27 250.58 1312.38 243.21 1313.2 240.52 1314.49 237.95 1316.24 235.72 1319.17 231.86 1319.17 226.72 1316.24 222.85 1316.24 222.85 1316.12 222.74 1316.12 222.62 1313.08 218.76 1307.93 217.47 1303.49 219.46 1293.07 224.02 1280.67 219.46 1276.11 208.93 1275.17 207.06 1274.7 204.95 1274.35 202.96 1273.89 198.17 1270.14 194.3 1265.46 193.6L1265.11 193.49C1260.43 192.9 1255.87 195.59 1254.23 200.15 1253.18 202.73 1251.77 205.19 1249.78 207.29 1244.52 212.79 1236.68 215.01 1229.31 212.91 1226.61 212.09 1224.04 210.8 1221.82 209.05 1217.96 206.01 1212.81 206.01 1208.95 209.05L1208.71 209.16C1204.85 212.21 1203.68 217.35 1205.67 221.68 1210.23 232.1 1205.67 244.5 1195.14 249.06 1193.27 250 1191.16 250.47 1189.17 250.82 1184.38 251.29 1180.51 255.03 1179.81 259.71L1179.7 260.06C1179.11 264.74 1181.8 269.31 1186.36 270.94 1188.94 272 1191.4 273.4 1193.5 275.39 1199.12 280.66 1201.34 288.49 1199.24 295.98 1198.42 298.67 1197.13 301.25 1195.37 303.47 1192.33 307.33 1192.33 312.48 1195.37 316.34L1195.49 316.58C1198.53 320.44 1203.56 321.61 1208.01 319.74 1213.98 316.81 1220.88 317.16 1226.73 320.44ZM1233.99 265.44C1237.85 247.07 1259.84 241.11 1272.6 254.8 1277.16 259.83 1279.03 266.73 1277.75 273.4 1273.89 291.77 1251.77 297.74 1239.13 284.05 1234.45 279.02 1232.47 272.11 1233.99 265.44Z" fill="#311125" opacity="1" stroke-width="4" stroke="none"></path></g><g><path d="M1340.76 993.43C1332.24 999.31 1314.69 1006.21 1300.38 992.58 1286.24 979.04 1284.62 969.33 1265.45 961.74 1248.84 955.1 1227.97 967.03 1227.97 967.03L1239.04 1012.43C1239.04 1012.43 1254.29 1004.93 1266.22 1009.96 1287.34 1018.9 1289.65 1041.82 1314.86 1047.1 1334.03 1051.11 1351.15 1039.44 1351.15 1039.44L1340.76 993.43Z" fill="#ffffff" opacity="1" stroke-width="4" stroke="none"></path></g></svg>