<svg xmlns="http://www.w3.org/2000/svg" height="1200" width="1600" version="1.1" xmlns:xlink="http://www.w3.org/1999/xlink" xmlns:svgjs="http://svgjs.com/svgjs"><rect fill="#ffffff" width="1600" height="1200"></rect><g><path d="M1106.93 341.49C1195.92 445.49 1253.7 581.28 1228.27 700.89 1202.85 819.91 1094.22 922.76 965.37 985.17 836.52 1048.15 688.02 1070.68 582.28 1015.79 477.12 960.32 415.29 826.27 384.09 686.44 352.89 546.61 351.74 400.42 422.23 300.46 493.3 200.5 636.02 147.34 767.18 156.01 898.34 165.26 1017.95 237.48 1106.93 341.49Z" fill="#e3d7f4" opacity="1" stroke-width="4" stroke="none"></path></g><g><path d="M467.23 310.29L1132.77 313.1C1155.25 313.1 1161.41 315.46 1161.41 337.94L1173.47 370.66V862.06C1173.47 884.54 1155.25 902.76 1132.77 902.76H467.23C444.75 902.76 426.53 884.54 426.53 862.06V370.66L437.5 337.94C437.5 315.46 444.75 310.29 467.23 310.29Z" fill="#f0edf7" opacity="1" stroke-width="4" stroke="none"></path><path d="M467.23 297.24H1132.77C1155.25 297.24 1173.47 315.46 1173.47 337.94V370.66H426.53V337.94C426.53 315.46 444.75 297.24 467.23 297.24Z" fill="#c4bfd1" opacity="1" stroke-width="4" stroke="none"></path><path d="M483.91 347.55C490.92 347.55 496.6 341.86 496.6 334.86 496.6 327.85 490.92 322.17 483.91 322.17 476.91 322.17 471.22 327.85 471.22 334.86 471.22 341.86 476.91 347.55 483.91 347.55Z" fill="#ffffff" opacity="1" stroke-width="4" stroke="none"></path><path d="M525.16 347.55C532.16 347.55 537.85 341.86 537.85 334.86 537.85 327.85 532.16 322.17 525.16 322.17 518.15 322.17 512.47 327.85 512.47 334.86 512.47 341.86 518.15 347.55 525.16 347.55Z" fill="#f1eef8" opacity="1" stroke-width="4" stroke="none"></path><path d="M566.4 347.55C573.41 347.55 579.09 341.86 579.09 334.86 579.09 327.85 573.41 322.17 566.4 322.17 559.39 322.17 553.71 327.85 553.71 334.86 553.71 341.86 559.39 347.55 566.4 347.55Z" fill="#f1eef8" opacity="1" stroke-width="4" stroke="none"></path><path d="M706.27 334.58H893.82" stroke="#f1eef8" stroke-width="4" stroke-linecap="round" stroke-linejoin="round" opacity="1" fill="none"></path></g><g><path d="M894.91 537.25C894.91 484.78 852.43 442.31 799.97 442.31 747.5 442.31 705.02 484.78 705.02 537.25 705.02 574.45 726.68 608.18 760.41 623.59V798.76L798.58 837.62 839.53 798.76V770.16L814.26 744.62 839.53 720.47V705.62L814.26 680.08 839.53 655.93V623.59C873.25 608.18 894.91 574.45 894.91 537.25ZM800.38 483.67C816.48 483.67 829.67 496.72 829.67 512.96 829.67 529.2 816.62 542.25 800.38 542.25 784.14 542.25 771.1 529.2 771.1 512.96 771.1 496.72 784.28 483.67 800.38 483.67Z" fill="#6d63ff" opacity="1" stroke-width="4" stroke="none"></path></g><g><path d="M314.99 885.39L269.45 745.21C267.76 739.95 268.23 735.16 270.86 731.5 273.3 728.12 277.34 726.33 282.13 726.33H485.98C496.4 726.33 507.57 734.78 510.95 745.21L556.49 885.39H314.99Z" fill="#772ad4" opacity="1" stroke-width="4" stroke="none"></path><path d="M457.06 902.48C458.56 902.39 459.97 902.2 461.37 901.73 464.94 900.6 467.85 898.07 469.54 894.78 471.23 891.49 471.52 887.64 470.39 884.08H707.85C708.32 885.48 708.6 886.99 708.6 888.49 708.6 896.19 702.31 902.48 694.52 902.48 694.52 902.48 457.06 902.48 457.06 902.48Z" fill="#772ad4" opacity="1" stroke-width="4" stroke="none"></path><path d="M333.86 902.48C325.87 902.48 318.74 897.32 316.3 889.71L314.51 884.08H470.47C470.94 885.48 471.22 886.89 471.22 888.4 471.22 896.19 464.93 902.48 457.23 902.48H333.86Z" fill="#772ad4" opacity="1" stroke-width="4" stroke="none"></path><path d="M332.83 884.17L289.73 751.68H496.21L539.4 884.17H332.83Z" fill="#ab94ff" opacity="1" stroke-width="4" stroke="none"></path><path d="M398.46 857.88C391.42 857.88 383.82 852.15 381.47 845.11L366.17 797.88C365.04 794.31 365.32 791.03 367.1 788.58 368.79 786.33 371.52 785.02 374.8 785.02H438.37C445.41 785.02 453.02 790.74 455.37 797.79L470.67 845.02C471.8 848.58 471.52 851.87 469.73 854.31 468.04 856.56 465.32 857.88 462.03 857.88H398.46Z" fill="#f0f0f0" opacity="1" stroke-width="4" stroke="none"></path><path d="M314.24 884.08H555.83" stroke="#0d0d0d" stroke-width="4" stroke-linecap="round" stroke-linejoin="round" opacity="1" fill="none"></path><path d="M454.98 795.53L429.91 822.29C425.03 827.46 415.83 827.46 407.56 822.29L366.16 796.19" stroke="#ab94ff" stroke-width="4" stroke-linecap="round" opacity="1" fill="none"></path><path d="M430.85 821.54L470.38 846.52" stroke="#ab94ff" stroke-width="4" stroke-linecap="round" opacity="1" fill="none"></path><path d="M382.12 847.08L405.78 821.82" stroke="#ab94ff" stroke-width="4" stroke-linecap="round" opacity="1" fill="none"></path><path d="M457.43 803.42C449.54 803.42 441 796.94 438.37 789.05 437.15 785.3 437.43 781.82 439.31 779.38 441 777.13 443.72 775.82 447.2 775.82 455.08 775.82 463.63 782.29 466.26 790.27 467.48 794.03 467.2 797.5 465.32 799.95 463.63 802.11 460.81 803.42 457.43 803.42Z" fill="#6d63ff" opacity="1" stroke-width="4" stroke="none"></path><path d="M400.16 743.89C396.96 743.89 393.49 741.26 392.46 738.07 391.99 736.57 392.08 735.16 392.83 734.13 393.49 733.19 394.62 732.72 396.02 732.72 399.22 732.72 402.69 735.35 403.72 738.54 404.19 740.04 404.1 741.45 403.35 742.48 402.6 743.33 401.47 743.89 400.16 743.89Z" fill="#0d0d0d" opacity="1" stroke-width="4" stroke="none"></path><path d="M457.43 805.39C448.7 805.39 439.22 798.26 436.4 789.52 434.99 785.11 435.37 781.07 437.62 777.97 439.68 775.16 443.07 773.56 447.2 773.56 455.93 773.56 465.41 780.7 468.23 789.43 469.64 793.84 469.26 797.88 467.01 800.98 464.85 803.89 461.47 805.39 457.43 805.39ZM447.1 777.88C444.38 777.88 442.22 778.82 441 780.51 439.59 782.48 439.4 785.2 440.44 788.3 442.69 795.35 450.58 801.26 457.52 801.26 457.71 801.26 457.81 801.26 457.99 801.26 460.15 801.26 462.22 800.32 463.63 798.63 465.04 796.66 465.22 793.94 464.19 790.84 461.84 783.7 454.05 777.88 447.1 777.88Z" fill="#ab94ff" opacity="1" stroke-width="4" stroke="none"></path></g><g><path d="M1135.17 440.36C1194.74 448.08 1249.29 406.05 1257.01 346.48 1264.73 286.91 1222.7 232.36 1163.13 224.64 1103.56 216.92 1049.01 258.95 1041.29 318.52 1033.57 378.09 1075.6 432.64 1135.17 440.36Z" fill="#ab94ff" opacity="1" stroke-width="4" stroke="none"></path><path d="M1154.75 273.47L1154.58 273.44C1143.06 272.24 1120.33 277.04 1116.85 303.92 1116.19 308.99 1119.75 313.62 1124.83 314.28 1129.9 314.94 1134.53 311.37 1135.19 306.3 1137.09 291.65 1148.89 291.53 1152.55 291.83 1164.25 293.41 1170.7 300.63 1169.38 310.84 1168.4 318.34 1164.94 320.65 1156.07 324.84 1148.14 328.56 1136.14 334.28 1134.56 350.49L1134.22 353.15C1133.56 358.22 1137.12 362.85 1142.2 363.51 1147.22 364.16 1151.89 360.66 1152.67 355.6L1153.09 352.37C1153.61 346.98 1156.17 345.32 1164.04 341.59L1164.17 341.55C1172.6 337.54 1185.36 331.39 1187.72 313.22 1190.38 292.69 1176.84 276.33 1154.75 273.47Z" fill="#ffffff" opacity="1" stroke-width="4" stroke="none"></path><path d="M1141.49 373.5C1135.9 372.78 1130.75 376.74 1130.02 382.34 1129.3 387.93 1133.27 393.08 1138.86 393.81 1144.52 394.48 1149.66 390.57 1150.33 384.97 1151.05 379.37 1147.09 374.23 1141.49 373.5Z" fill="#ffffff" opacity="1" stroke-width="4" stroke="none"></path></g><g><path d="M1355.07 673.8L1376.39 652.48 1414.14 690.24C1420.04 696.13 1420.04 705.66 1414.14 711.56 1408.25 717.45 1398.72 717.45 1392.82 711.56L1355.07 673.8Z" fill="#f0edf7" stroke-linejoin="round" opacity="1" stroke-width="4" stroke="none"></path><path d="M1414.14 699.9C1408.25 705.8 1398.72 705.8 1392.82 699.9L1360.92 668 1355.07 673.82 1392.82 711.57C1398.72 717.47 1408.25 717.47 1414.14 711.57 1418.62 707.09 1419.67 700.55 1417.37 695.06 1416.65 696.83 1415.56 698.45 1414.14 699.9Z" fill="#545454" opacity="0.2" stroke-width="4" stroke="none"></path><path d="M1353.91 641.69L1344.23 651.37 1360.87 668.01 1370.55 658.33 1353.91 641.69Z" fill="#f0edf7" opacity="1" stroke-width="4" stroke="none"></path><path d="M1362.05 664.96C1355.83 659.39 1353.73 650.99 1356.24 644L1353.9 641.66 1344.2 651.35 1360.84 667.99 1363.02 665.81C1362.74 665.53 1362.38 665.24 1362.05 664.96Z" fill="#545454" opacity="0.2" stroke-width="4" stroke="none"></path><path d="M1349.09 555.53C1373.08 578.71 1375.42 616.34 1354.5 642.31 1353.33 643.76 1352.08 645.17 1350.75 646.54 1348.93 648.44 1346.95 650.26 1344.89 651.92 1317.27 674.29 1276.73 669.97 1254.36 642.35 1231.99 614.73 1236.31 574.18 1263.93 551.81 1289.21 531.38 1325.71 533 1349.09 555.53Z" fill="#f0edf7" opacity="1" stroke-width="4" stroke="none"></path><path d="M1304.39 647.07C1329.35 647.07 1349.58 626.84 1349.58 601.89 1349.58 576.93 1329.35 556.7 1304.39 556.7 1279.44 556.7 1259.21 576.93 1259.21 601.89 1259.21 626.84 1279.44 647.07 1304.39 647.07Z" fill="#ffffff" opacity="1" stroke-width="4" stroke="none"></path><path d="M1376.36 652.44C1382.09 658.46 1381.85 667.99 1375.83 673.72 1370.02 679.25 1360.85 679.29 1355.04 673.76L1376.36 652.44Z" fill="#f0edf7" stroke-linejoin="round" opacity="1" stroke-width="4" stroke="none"></path><path d="M1326.07 608.87C1329.87 608.87 1332.94 605.8 1332.94 602.01 1332.94 598.21 1329.87 595.14 1326.07 595.14 1322.28 595.14 1319.21 598.21 1319.21 602.01 1319.21 605.8 1322.28 608.87 1326.07 608.87Z" fill="#f0f0f0" opacity="1" stroke-width="4" stroke="none"></path><path d="M1304.63 608.87C1308.42 608.87 1311.5 605.8 1311.5 602.01 1311.5 598.21 1308.42 595.14 1304.63 595.14 1300.84 595.14 1297.77 598.21 1297.77 602.01 1297.77 605.8 1300.84 608.87 1304.63 608.87Z" fill="#f0f0f0" opacity="1" stroke-width="4" stroke="none"></path><path d="M1289.27 605.19C1291.03 601.83 1289.73 597.68 1286.38 595.92 1283.02 594.16 1278.87 595.46 1277.11 598.82 1275.35 602.18 1276.65 606.33 1280.01 608.08 1283.36 609.84 1287.51 608.55 1289.27 605.19Z" fill="#f0f0f0" opacity="1" stroke-width="4" stroke="none"></path><path d="M1376.91 695L1397.79 674.08" stroke="#545454" stroke-width="4" stroke-linecap="round" stroke-linejoin="round" opacity="1" fill="none"></path><path d="M1383.49 701.58L1404.41 680.67" stroke="#545454" stroke-width="4" stroke-linecap="round" stroke-linejoin="round" opacity="1" fill="none"></path><path d="M1390.08 708.16L1410.99 687.25" stroke="#545454" stroke-width="4" stroke-linecap="round" stroke-linejoin="round" opacity="1" fill="none"></path><path d="M1354.58 642.35C1353.41 643.8 1352.16 645.21 1350.83 646.59 1348.97 648.48 1347.03 650.3 1344.97 651.96" stroke="#545454" stroke-width="4" stroke-linecap="round" stroke-linejoin="round" opacity="1" fill="none"></path></g></svg>